<svg width="390" height="215" viewBox="0 0 181 215" fill="none" xmlns="http://www.w3.org/2000/svg">
<path d="M12.4 215V171.5L88.3 101.3C93.1 96.7 96.6 92.7 98.8 89.3C101.2 85.9 102.8 82.9 103.6 80.3C104.4 77.5 104.8 74.9 104.8 72.5C104.8 67.3 103.1 63.3 99.7 60.5C96.3 57.5 91.2 56 84.4 56C78.2 56 72.3 57.7 66.7 61.1C61.1 64.3 56.7 69.1 53.5 75.5L0.0999999 48.8C7.7 34.4 19.1 22.7 34.3 13.7C49.5 4.7 68.4 0.199994 91 0.199994C107.6 0.199994 122.3 2.89999 135.1 8.3C147.9 13.7 157.9 21.3 165.1 31.1C172.3 40.9 175.9 52.5 175.9 65.9C175.9 72.7 175 79.5 173.2 86.3C171.6 93.1 168.2 100.3 163 107.9C157.8 115.3 150.1 123.6 139.9 132.8L82.9 184.7L71.8 160.1H180.7V215H12.4Z" fill="#EBEBEB" fill-opacity="0.5"/>
</svg>
