<svg width="370" height="215" viewBox="0 0 179 215" fill="none" xmlns="http://www.w3.org/2000/svg">
<path d="M83 214.8C68.6 214.8 54 213.2 39.2 210C24.4 206.8 11.4 202.1 0.2 195.9L24.2 143.7C33.2 148.9 42.6 152.8 52.4 155.4C62.4 157.8 71.8 159 80.6 159C88.6 159 95.1 157.7 100.1 155.1C105.3 152.3 107.9 148.2 107.9 142.8C107.9 138.2 106 134.7 102.2 132.3C98.4 129.7 92 128.4 83 128.4H55.1V84.9L109.4 29.7L115.7 53.4H11V-1.43051e-05H167.6V43.5L113.3 98.7L79.4 79.5H98C124.4 79.5 144.5 85.4 158.3 97.2C172.1 109 179 124.2 179 142.8C179 154.8 175.6 166.3 168.8 177.3C162.2 188.3 151.8 197.3 137.6 204.3C123.6 211.3 105.4 214.8 83 214.8Z" fill="#EBEBEB" fill-opacity="0.5"/>
</svg>
