<svg width="390" height="215" viewBox="0 0 180 215" fill="none" xmlns="http://www.w3.org/2000/svg">
<path d="M83.3 214.8C68.9 214.8 54.3 213.2 39.5 210C24.7 206.8 11.7 202.1 0.5 195.9L24.5 143.7C33.5 148.9 42.9 152.8 52.7 155.4C62.5 157.8 71.8 159 80.6 159C88.6 159 95.2 157.6 100.4 154.8C105.6 152 108.2 147.9 108.2 142.5C108.2 139.5 107.3 136.9 105.5 134.7C103.7 132.3 100.5 130.5 95.9 129.3C91.5 128.1 85 127.5 76.4 127.5H15.5L26 -1.43051e-05H165.5V53.4H50.9L86.6 23.1L80.3 104.4L44.6 74.1H93.5C114.3 74.1 130.9 77.1 143.3 83.1C155.9 89.1 165 97.2 170.6 107.4C176.4 117.4 179.3 128.6 179.3 141C179.3 153.4 175.9 165.3 169.1 176.7C162.5 187.9 152.1 197.1 137.9 204.3C123.9 211.3 105.7 214.8 83.3 214.8Z" fill="#EBEBEB" fill-opacity="0.5"/>
</svg>
