<svg width="390" height="220" viewBox="0 0 187 220" fill="none" xmlns="http://www.w3.org/2000/svg">
<path d="M101.5 219.8C81.5 219.8 63.9 216 48.7 208.4C33.7 200.6 21.9 189.1 13.3 173.9C4.9 158.5 0.7 139.4 0.7 116.6C0.7 92 5.6 71.1 15.4 53.9C25.2 36.5 38.8 23.2 56.2 14C73.8 4.79999 94.1 0.199994 117.1 0.199994C129.5 0.199994 141.4 1.69999 152.8 4.69999C164.4 7.49999 174.2 11.5 182.2 16.7L156.7 66.2C150.5 61.8 144.2 58.9 137.8 57.5C131.6 55.9 125.2 55.1 118.6 55.1C104.4 55.1 93 59.4 84.4 68C76 76.4 71.8 88.7 71.8 104.9C71.8 107.9 71.8 110.9 71.8 113.9C71.8 116.7 71.8 119.6 71.8 122.6L55.6 110.9C59.6 104.1 64.3 98.4 69.7 93.8C75.1 89 81.5 85.4 88.9 83C96.3 80.4 104.9 79.1 114.7 79.1C127.5 79.1 139.3 81.9 150.1 87.5C161.1 92.9 169.9 100.6 176.5 110.6C183.3 120.6 186.7 132.5 186.7 146.3C186.7 161.3 182.9 174.3 175.3 185.3C167.7 196.3 157.4 204.8 144.4 210.8C131.6 216.8 117.3 219.8 101.5 219.8ZM96.7 170.9C100.9 170.9 104.6 170.1 107.8 168.5C111.2 166.7 113.8 164.2 115.6 161C117.4 157.8 118.3 154 118.3 149.6C118.3 143 116.3 137.8 112.3 134C108.3 130 103.1 128 96.7 128C92.5 128 88.8 128.9 85.6 130.7C82.4 132.5 79.8 135 77.8 138.2C76 141.4 75.1 145.2 75.1 149.6C75.1 154 76 157.8 77.8 161C79.8 164.2 82.4 166.7 85.6 168.5C88.8 170.1 92.5 170.9 96.7 170.9Z" fill="#EBEBEB" fill-opacity="0.5"/>
</svg>
